<svg xmlns="http://www.w3.org/2000/svg" viewBox="0 0 512 512" role="img" aria-label="CalorieSnap icon">
  <defs>
    <linearGradient id="bg" x1="0" y1="0" x2="1" y2="1">
      <stop offset="0" stop-color="#0A84FF"/>
      <stop offset="1" stop-color="#22C55E"/>
    </linearGradient>
    <linearGradient id="lens" x1="0" y1="0" x2="1" y2="1">
      <stop offset="0" stop-color="#FFFFFF"/>
      <stop offset="1" stop-color="#E6F3FF"/>
    </linearGradient>
  </defs>
  <rect x="32" y="32" width="448" height="448" rx="96" fill="url(#bg)"/>
  <rect x="112" y="176" width="288" height="200" rx="56" fill="none" stroke="#FFFFFF" stroke-width="20"/>
  <rect x="152" y="140" width="208" height="56" rx="28" fill="#FFFFFF" opacity="0.2"/>
  <circle cx="256" cy="276" r="80" fill="url(#lens)" stroke="#FFFFFF" stroke-width="16"/>
  <circle cx="256" cy="276" r="36" fill="#0A84FF" opacity="0.95"/>
  <circle cx="350" cy="226" r="14" fill="#FFFFFF"/>
  <path d="M380 112l12 26 26 12-26 12-12 26-12-26-26-12 26-12 12-26z" fill="#FFFFFF"/>
  <path d="M338 116l6 13 13 6-13 6-6 13-6-13-13-6 13-6 6-13z" fill="#E6F3FF"/>
</svg>
